<?xml version="1.0" encoding="utf-8" standalone="no"?>
<!DOCTYPE svg PUBLIC "-//W3C//DTD SVG 1.1//EN"
  "http://www.w3.org/Graphics/SVG/1.1/DTD/svg11.dtd">
<svg xmlns:xlink="http://www.w3.org/1999/xlink" width="324pt" height="576pt" viewBox="0 0 324 576" xmlns="http://www.w3.org/2000/svg" version="1.1">
 <metadata>
  <rdf:RDF xmlns:dc="http://purl.org/dc/elements/1.1/" xmlns:cc="http://creativecommons.org/ns#" xmlns:rdf="http://www.w3.org/1999/02/22-rdf-syntax-ns#">
   <cc:Work>
    <dc:type rdf:resource="http://purl.org/dc/dcmitype/StillImage"/>
    <dc:date>2025-09-01T15:56:06.160904</dc:date>
    <dc:format>image/svg+xml</dc:format>
    <dc:creator>
     <cc:Agent>
      <dc:title>Matplotlib v3.10.5, https://matplotlib.org/</dc:title>
     </cc:Agent>
    </dc:creator>
   </cc:Work>
  </rdf:RDF>
 </metadata>
 <defs>
  <style type="text/css">*{stroke-linejoin: round; stroke-linecap: butt}</style>
 </defs>
 <g id="figure_1">
  <g id="patch_1">
   <path d="M 0 576 
L 324 576 
L 324 0 
L 0 0 
z
" style="fill: #ffffff"/>
  </g>
  <g id="axes_1">
   <g id="patch_2">
    <path d="M 84.998 543.92 
L 223.87 543.92 
L 223.87 10.8 
L 84.998 10.8 
z
" style="fill: #ffffff"/>
   </g>
   <g id="FillBetweenPolyCollection_1">
    <defs>
     <path id="m00ec8755fe" d="M 154.434 -40.182379 
L 154.570696 -40.182379 
L 154.56747 -41.692662 
L 154.564284 -43.202945 
L 154.561146 -44.713228 
L 154.558049 -46.223511 
L 154.555009 -47.733793 
L 154.552015 -49.244076 
L 154.549076 -50.754359 
L 154.546194 -52.264642 
L 154.543372 -53.774924 
L 154.540611 -55.285207 
L 154.53791 -56.79549 
L 154.535279 -58.305773 
L 154.532713 -59.816055 
L 154.530217 -61.326338 
L 154.527791 -62.836621 
L 154.52544 -64.346904 
L 154.523163 -65.857187 
L 154.520965 -67.367469 
L 154.518842 -68.877752 
L 154.516797 -70.388035 
L 154.514832 -71.898318 
L 154.512951 -73.413635 
L 154.511154 -74.923917 
L 154.50944 -76.4342 
L 154.507806 -77.944483 
L 154.50626 -79.454766 
L 154.504798 -80.965048 
L 154.503419 -82.475331 
L 154.502125 -83.985614 
L 154.500919 -85.495897 
L 154.499796 -87.00618 
L 154.498758 -88.516462 
L 154.497803 -90.026745 
L 154.496928 -91.537028 
L 154.496136 -93.047311 
L 154.495424 -94.557593 
L 154.494786 -96.067876 
L 154.494232 -97.578159 
L 154.493748 -99.088442 
L 154.493333 -100.598724 
L 154.492993 -102.109007 
L 154.492719 -103.61929 
L 154.492509 -105.129573 
L 154.49236 -106.639855 
L 154.492267 -108.150138 
L 154.49223 -109.660421 
L 154.492244 -111.170704 
L 154.492299 -112.680987 
L 154.492402 -114.191269 
L 154.492542 -115.701552 
L 154.492714 -117.211835 
L 154.492914 -118.722118 
L 154.493138 -120.2324 
L 154.49338 -121.742683 
L 154.493636 -123.258 
L 154.493897 -124.768283 
L 154.494157 -126.278566 
L 154.494418 -127.788848 
L 154.494665 -129.299131 
L 154.494893 -130.809414 
L 154.495098 -132.319697 
L 154.495275 -133.82998 
L 154.495419 -135.340262 
L 154.495517 -136.850545 
L 154.495568 -138.359821 
L 154.495564 -139.870104 
L 154.495494 -141.38089 
L 154.495359 -142.891173 
L 154.495145 -144.401455 
L 154.494856 -145.912242 
L 154.494474 -147.422524 
L 154.493999 -148.932807 
L 154.493426 -150.443593 
L 154.492751 -151.953876 
L 154.491964 -153.464159 
L 154.491061 -154.974442 
L 154.490036 -156.485228 
L 154.488891 -157.995511 
L 154.48762 -159.505793 
L 154.486213 -161.01658 
L 154.484677 -162.526862 
L 154.483005 -164.037145 
L 154.481194 -165.547931 
L 154.479247 -167.058214 
L 154.477164 -168.568497 
L 154.474945 -170.07878 
L 154.579674 -171.589566 
L 154.716701 -173.099849 
L 154.853603 -174.610131 
L 154.990406 -176.120918 
L 155.127075 -177.6312 
L 155.263604 -179.141483 
L 155.400086 -180.652269 
L 155.536475 -182.162552 
L 155.672771 -183.672935 
L 155.802269 -185.183369 
L 155.88413 -186.693803 
L 155.964455 -188.204237 
L 156.043196 -189.714671 
L 156.120215 -191.225104 
L 156.195511 -192.735538 
L 156.269037 -194.245821 
L 156.340701 -195.756607 
L 156.410548 -197.26689 
L 156.47858 -198.777173 
L 156.544749 -200.287456 
L 156.609148 -201.798242 
L 156.671825 -203.308524 
L 156.732779 -204.818807 
L 156.792103 -206.329593 
L 156.84989 -207.839876 
L 156.906653 -209.350159 
L 156.962857 -210.860945 
L 157.017059 -212.371228 
L 157.069351 -213.881511 
L 157.119781 -215.391793 
L 157.168349 -216.90258 
L 157.2151 -218.412862 
L 157.260082 -219.923145 
L 157.303341 -221.433931 
L 157.344877 -222.944214 
L 157.38483 -224.454497 
L 157.423153 -225.965283 
L 157.459986 -227.475566 
L 157.495282 -228.985849 
L 157.528157 -230.496131 
L 157.558797 -232.006918 
L 157.588086 -233.5172 
L 157.616119 -235.027483 
L 157.64294 -236.538269 
L 157.668551 -238.049559 
L 157.693044 -239.559842 
L 157.716513 -241.070124 
L 157.738911 -242.580407 
L 157.760331 -244.09069 
L 157.780866 -245.600973 
L 157.80047 -247.111256 
L 157.819235 -248.621538 
L 157.837256 -250.131821 
L 157.854485 -251.642104 
L 157.871062 -253.152387 
L 157.886941 -254.662669 
L 157.902168 -256.172952 
L 157.916882 -257.683235 
L 157.930992 -259.193518 
L 157.944635 -260.7038 
L 157.957813 -262.214083 
L 157.970525 -263.724366 
L 157.982865 -265.234649 
L 157.994879 -266.744932 
L 158.00652 -268.255214 
L 158.017882 -269.765497 
L 158.028965 -271.27578 
L 158.039814 -272.786063 
L 158.050478 -274.30138 
L 158.060955 -275.811662 
L 158.071292 -277.321945 
L 158.08149 -278.832228 
L 158.091641 -280.342511 
L 158.101653 -281.852793 
L 158.111664 -283.363076 
L 158.121629 -284.873359 
L 158.131594 -286.383642 
L 158.141606 -287.893925 
L 158.151617 -289.404207 
L 158.161722 -290.91449 
L 158.171919 -292.424773 
L 158.18221 -293.935056 
L 158.192594 -295.445338 
L 158.203118 -296.955621 
L 158.213828 -298.465904 
L 158.224678 -299.976187 
L 158.235714 -301.486469 
L 158.246982 -302.996752 
L 158.258437 -304.507035 
L 158.270079 -306.017318 
L 158.281999 -307.5276 
L 158.294199 -309.037883 
L 158.306586 -310.548166 
L 158.319298 -312.058449 
L 158.33229 -313.568732 
L 158.345514 -315.079014 
L 158.359111 -316.589297 
L 158.372941 -318.09958 
L 158.387143 -319.609863 
L 158.401625 -321.120145 
L 158.416433 -322.630428 
L 158.431566 -324.145745 
L 158.447026 -325.656028 
L 158.462812 -327.166311 
L 158.47897 -328.676593 
L 158.495407 -330.186876 
L 158.512217 -331.697159 
L 158.529353 -333.207442 
L 158.546862 -334.717725 
L 158.564649 -336.228007 
L 158.58281 -337.73829 
L 158.601296 -339.248573 
L 158.620062 -340.758856 
L 158.6392 -342.269138 
L 158.658618 -343.779421 
L 158.678408 -345.289704 
L 158.698431 -346.799987 
L 158.71878 -348.310269 
L 158.739408 -349.820552 
L 158.760363 -351.330835 
L 158.78155 -352.841118 
L 158.80297 -354.3514 
L 158.824669 -355.861683 
L 158.846601 -357.371966 
L 158.868766 -358.882249 
L 158.891117 -360.392532 
L 158.913701 -361.902814 
L 158.936425 -363.413097 
L 158.959335 -364.92338 
L 158.982431 -366.433663 
L 159.005621 -367.943945 
L 159.02895 -369.454228 
L 159.052326 -370.964511 
L 159.075841 -372.474794 
L 159.099356 -373.985076 
L 159.123105 -375.500393 
L 159.146853 -377.010676 
L 159.170135 -378.520959 
L 159.193884 -380.031242 
L 159.217632 -381.541525 
L 159.240914 -383.051807 
L 159.264197 -384.56209 
L 159.287945 -386.072373 
L 159.310762 -387.582656 
L 159.334044 -389.092938 
L 159.356861 -390.603221 
L 159.379678 -392.113504 
L 159.402029 -393.623787 
L 159.424381 -395.134069 
L 159.446266 -396.644352 
L 159.467686 -398.154635 
L 159.489106 -399.664918 
L 159.51006 -401.175201 
L 159.530549 -402.685483 
L 159.551038 -404.195766 
L 159.570595 -405.706049 
L 159.590152 -407.216332 
L 159.608778 -408.726614 
L 159.627405 -410.236897 
L 159.645099 -411.74718 
L 159.662328 -413.257463 
L 159.679092 -414.767745 
L 159.69539 -416.278028 
L 159.710756 -417.788311 
L 159.725657 -419.298594 
L 159.739626 -420.808876 
L 159.75313 -422.319159 
L 159.766168 -423.829442 
L 159.778275 -425.344759 
L 159.789451 -426.855042 
L 159.800161 -428.365325 
L 159.80994 -429.875607 
L 159.818787 -431.38589 
L 159.826703 -432.896173 
L 159.834154 -434.406456 
L 159.840207 -435.916738 
L 159.845795 -437.427021 
L 159.850451 -438.937304 
L 159.854177 -440.447587 
L 159.85697 -441.957869 
L 159.858833 -443.468152 
L 159.859299 -444.978435 
L 159.859299 -446.488718 
L 159.857902 -447.999001 
L 159.856039 -449.509283 
L 159.85278 -451.019566 
L 159.848589 -452.529849 
L 159.843001 -454.040132 
L 159.836947 -455.550414 
L 159.829497 -457.060697 
L 159.821115 -458.57098 
L 159.811802 -460.081263 
L 159.801092 -461.591545 
L 159.789917 -463.101828 
L 159.777344 -464.612111 
L 159.763375 -466.122394 
L 159.748939 -467.632676 
L 159.733107 -469.142959 
L 159.715878 -470.653242 
L 159.698183 -472.163525 
L 159.679092 -473.673808 
L 159.659069 -475.189125 
L 159.638114 -476.699407 
L 159.616229 -478.20969 
L 159.592946 -479.719973 
L 159.569198 -481.230256 
L 159.544053 -482.740538 
L 159.517977 -484.250821 
L 159.490969 -485.761104 
L 159.462564 -487.271387 
L 159.433694 -488.781669 
L 159.403892 -490.291952 
L 159.373159 -491.802235 
L 159.341495 -493.312518 
L 159.308899 -494.822801 
L 159.275372 -496.333083 
L 159.24138 -497.843366 
L 159.206456 -499.353649 
L 159.170601 -500.863932 
L 159.133815 -502.374214 
L 159.096562 -503.884497 
L 159.058472 -505.39478 
L 159.01973 -506.905063 
L 158.980289 -508.415345 
L 158.94029 -509.925628 
L 158.899639 -511.435911 
L 158.858382 -512.946194 
L 158.816613 -514.456477 
L 158.774332 -515.966759 
L 158.731539 -517.477042 
L 158.68828 -518.987325 
L 158.644602 -520.497608 
L 158.600505 -522.00789 
L 158.556081 -523.518173 
L 158.511286 -525.028456 
L 158.466211 -526.543773 
L 158.420903 -528.054056 
L 158.375316 -529.564338 
L 158.329542 -531.074621 
L 158.283583 -532.584904 
L 158.237483 -534.095187 
L 158.191291 -535.60547 
L 158.145051 -537.115752 
L 158.098766 -538.626035 
L 158.052433 -540.136318 
L 158.006194 -541.646601 
L 157.960002 -543.156883 
L 157.913902 -544.667166 
L 157.867943 -546.177449 
L 157.852576 -547.687732 
L 157.855649 -549.198014 
L 157.858956 -550.708297 
L 157.862541 -552.21858 
L 157.866359 -553.728863 
L 157.87055 -555.239145 
L 157.875067 -556.749428 
L 154.297304 -40.182379 
L 154.30053 -41.692662 
L 154.303716 -43.202945 
L 154.306854 -44.713228 
L 154.309951 -46.223511 
L 154.312991 -47.733793 
L 154.315985 -49.244076 
L 154.318924 -50.754359 
L 154.321806 -52.264642 
L 154.324628 -53.774924 
L 154.327389 -55.285207 
L 154.33009 -56.79549 
L 154.332721 -58.305773 
L 154.335287 -59.816055 
L 154.337783 -61.326338 
L 154.340209 -62.836621 
L 154.34256 -64.346904 
L 154.344837 -65.857187 
L 154.347035 -67.367469 
L 154.349158 -68.877752 
L 154.351203 -70.388035 
L 154.353168 -71.898318 
L 154.355049 -73.413635 
L 154.356846 -74.923917 
L 154.35856 -76.4342 
L 154.360194 -77.944483 
L 154.36174 -79.454766 
L 154.363202 -80.965048 
L 154.364581 -82.475331 
L 154.365875 -83.985614 
L 154.367081 -85.495897 
L 154.368204 -87.00618 
L 154.369242 -88.516462 
L 154.370197 -90.026745 
L 154.371072 -91.537028 
L 154.371864 -93.047311 
L 154.372576 -94.557593 
L 154.373214 -96.067876 
L 154.373768 -97.578159 
L 154.374252 -99.088442 
L 154.374667 -100.598724 
L 154.375007 -102.109007 
L 154.375281 -103.61929 
L 154.375491 -105.129573 
L 154.37564 -106.639855 
L 154.375733 -108.150138 
L 154.37577 -109.660421 
L 154.375756 -111.170704 
L 154.375701 -112.680987 
L 154.375598 -114.191269 
L 154.375458 -115.701552 
L 154.375286 -117.211835 
L 154.375086 -118.722118 
L 154.374862 -120.2324 
L 154.37462 -121.742683 
L 154.374364 -123.258 
L 154.374103 -124.768283 
L 154.373843 -126.278566 
L 154.373582 -127.788848 
L 154.373335 -129.299131 
L 154.373107 -130.809414 
L 154.372902 -132.319697 
L 154.372725 -133.82998 
L 154.372581 -135.340262 
L 154.372483 -136.850545 
L 154.372432 -138.359821 
L 154.372436 -139.870104 
L 154.372506 -141.38089 
L 154.372641 -142.891173 
L 154.372855 -144.401455 
L 154.373144 -145.912242 
L 154.373526 -147.422524 
L 154.374001 -148.932807 
L 154.374574 -150.443593 
L 154.375249 -151.953876 
L 154.376036 -153.464159 
L 154.376939 -154.974442 
L 154.377964 -156.485228 
L 154.379109 -157.995511 
L 154.38038 -159.505793 
L 154.381787 -161.01658 
L 154.383323 -162.526862 
L 154.384995 -164.037145 
L 154.386806 -165.547931 
L 154.388753 -167.058214 
L 154.390836 -168.568497 
L 154.393055 -170.07878 
L 154.288326 -171.589566 
L 154.151299 -173.099849 
L 154.014397 -174.610131 
L 153.877594 -176.120918 
L 153.740925 -177.6312 
L 153.604396 -179.141483 
L 153.467914 -180.652269 
L 153.331525 -182.162552 
L 153.195229 -183.672935 
L 153.065731 -185.183369 
L 152.98387 -186.693803 
L 152.903545 -188.204237 
L 152.824804 -189.714671 
L 152.747785 -191.225104 
L 152.672489 -192.735538 
L 152.598963 -194.245821 
L 152.527299 -195.756607 
L 152.457452 -197.26689 
L 152.38942 -198.777173 
L 152.323251 -200.287456 
L 152.258852 -201.798242 
L 152.196175 -203.308524 
L 152.135221 -204.818807 
L 152.075897 -206.329593 
L 152.01811 -207.839876 
L 151.961347 -209.350159 
L 151.905143 -210.860945 
L 151.850941 -212.371228 
L 151.798649 -213.881511 
L 151.748219 -215.391793 
L 151.699651 -216.90258 
L 151.6529 -218.412862 
L 151.607918 -219.923145 
L 151.564659 -221.433931 
L 151.523123 -222.944214 
L 151.48317 -224.454497 
L 151.444847 -225.965283 
L 151.408014 -227.475566 
L 151.372718 -228.985849 
L 151.339843 -230.496131 
L 151.309203 -232.006918 
L 151.279914 -233.5172 
L 151.251881 -235.027483 
L 151.22506 -236.538269 
L 151.199449 -238.049559 
L 151.174956 -239.559842 
L 151.151487 -241.070124 
L 151.129089 -242.580407 
L 151.107669 -244.09069 
L 151.087134 -245.600973 
L 151.06753 -247.111256 
L 151.048765 -248.621538 
L 151.030744 -250.131821 
L 151.013515 -251.642104 
L 150.996938 -253.152387 
L 150.981059 -254.662669 
L 150.965832 -256.172952 
L 150.951118 -257.683235 
L 150.937008 -259.193518 
L 150.923365 -260.7038 
L 150.910187 -262.214083 
L 150.897475 -263.724366 
L 150.885135 -265.234649 
L 150.873121 -266.744932 
L 150.86148 -268.255214 
L 150.850118 -269.765497 
L 150.839035 -271.27578 
L 150.828186 -272.786063 
L 150.817522 -274.30138 
L 150.807045 -275.811662 
L 150.796708 -277.321945 
L 150.78651 -278.832228 
L 150.776359 -280.342511 
L 150.766347 -281.852793 
L 150.756336 -283.363076 
L 150.746371 -284.873359 
L 150.736406 -286.383642 
L 150.726394 -287.893925 
L 150.716383 -289.404207 
L 150.706278 -290.91449 
L 150.696081 -292.424773 
L 150.68579 -293.935056 
L 150.675406 -295.445338 
L 150.664882 -296.955621 
L 150.654172 -298.465904 
L 150.643322 -299.976187 
L 150.632286 -301.486469 
L 150.621018 -302.996752 
L 150.609563 -304.507035 
L 150.597921 -306.017318 
L 150.586001 -307.5276 
L 150.573801 -309.037883 
L 150.561414 -310.548166 
L 150.548702 -312.058449 
L 150.53571 -313.568732 
L 150.522486 -315.079014 
L 150.508889 -316.589297 
L 150.495059 -318.09958 
L 150.480857 -319.609863 
L 150.466375 -321.120145 
L 150.451567 -322.630428 
L 150.436434 -324.145745 
L 150.420974 -325.656028 
L 150.405188 -327.166311 
L 150.38903 -328.676593 
L 150.372593 -330.186876 
L 150.355783 -331.697159 
L 150.338647 -333.207442 
L 150.321138 -334.717725 
L 150.303351 -336.228007 
L 150.28519 -337.73829 
L 150.266704 -339.248573 
L 150.247938 -340.758856 
L 150.2288 -342.269138 
L 150.209382 -343.779421 
L 150.189592 -345.289704 
L 150.169569 -346.799987 
L 150.14922 -348.310269 
L 150.128592 -349.820552 
L 150.107637 -351.330835 
L 150.08645 -352.841118 
L 150.06503 -354.3514 
L 150.043331 -355.861683 
L 150.021399 -357.371966 
L 149.999234 -358.882249 
L 149.976883 -360.392532 
L 149.954299 -361.902814 
L 149.931575 -363.413097 
L 149.908665 -364.92338 
L 149.885569 -366.433663 
L 149.862379 -367.943945 
L 149.83905 -369.454228 
L 149.815674 -370.964511 
L 149.792159 -372.474794 
L 149.768644 -373.985076 
L 149.744895 -375.500393 
L 149.721147 -377.010676 
L 149.697865 -378.520959 
L 149.674116 -380.031242 
L 149.650368 -381.541525 
L 149.627086 -383.051807 
L 149.603803 -384.56209 
L 149.580055 -386.072373 
L 149.557238 -387.582656 
L 149.533956 -389.092938 
L 149.511139 -390.603221 
L 149.488322 -392.113504 
L 149.465971 -393.623787 
L 149.443619 -395.134069 
L 149.421734 -396.644352 
L 149.400314 -398.154635 
L 149.378894 -399.664918 
L 149.35794 -401.175201 
L 149.337451 -402.685483 
L 149.316962 -404.195766 
L 149.297405 -405.706049 
L 149.277848 -407.216332 
L 149.259222 -408.726614 
L 149.240595 -410.236897 
L 149.222901 -411.74718 
L 149.205672 -413.257463 
L 149.188908 -414.767745 
L 149.17261 -416.278028 
L 149.157244 -417.788311 
L 149.142343 -419.298594 
L 149.128374 -420.808876 
L 149.11487 -422.319159 
L 149.101832 -423.829442 
L 149.089725 -425.344759 
L 149.078549 -426.855042 
L 149.067839 -428.365325 
L 149.05806 -429.875607 
L 149.049213 -431.38589 
L 149.041297 -432.896173 
L 149.033846 -434.406456 
L 149.027793 -435.916738 
L 149.022205 -437.427021 
L 149.017549 -438.937304 
L 149.013823 -440.447587 
L 149.01103 -441.957869 
L 149.009167 -443.468152 
L 149.008701 -444.978435 
L 149.008701 -446.488718 
L 149.010098 -447.999001 
L 149.011961 -449.509283 
L 149.01522 -451.019566 
L 149.019411 -452.529849 
L 149.024999 -454.040132 
L 149.031053 -455.550414 
L 149.038503 -457.060697 
L 149.046885 -458.57098 
L 149.056198 -460.081263 
L 149.066908 -461.591545 
L 149.078083 -463.101828 
L 149.090656 -464.612111 
L 149.104625 -466.122394 
L 149.119061 -467.632676 
L 149.134893 -469.142959 
L 149.152122 -470.653242 
L 149.169817 -472.163525 
L 149.188908 -473.673808 
L 149.208931 -475.189125 
L 149.229886 -476.699407 
L 149.251771 -478.20969 
L 149.275054 -479.719973 
L 149.298802 -481.230256 
L 149.323947 -482.740538 
L 149.350023 -484.250821 
L 149.377031 -485.761104 
L 149.405436 -487.271387 
L 149.434306 -488.781669 
L 149.464108 -490.291952 
L 149.494841 -491.802235 
L 149.526505 -493.312518 
L 149.559101 -494.822801 
L 149.592628 -496.333083 
L 149.62662 -497.843366 
L 149.661544 -499.353649 
L 149.697399 -500.863932 
L 149.734185 -502.374214 
L 149.771438 -503.884497 
L 149.809528 -505.39478 
L 149.84827 -506.905063 
L 149.887711 -508.415345 
L 149.92771 -509.925628 
L 149.968361 -511.435911 
L 150.009618 -512.946194 
L 150.051387 -514.456477 
L 150.093668 -515.966759 
L 150.136461 -517.477042 
L 150.17972 -518.987325 
L 150.223398 -520.497608 
L 150.267495 -522.00789 
L 150.311919 -523.518173 
L 150.356714 -525.028456 
L 150.401789 -526.543773 
L 150.447097 -528.054056 
L 150.492684 -529.564338 
L 150.538458 -531.074621 
L 150.584417 -532.584904 
L 150.630517 -534.095187 
L 150.676709 -535.60547 
L 150.722949 -537.115752 
L 150.769234 -538.626035 
L 150.815567 -540.136318 
L 150.861806 -541.646601 
L 150.907998 -543.156883 
L 150.954098 -544.667166 
L 151.000057 -546.177449 
L 151.015424 -547.687732 
L 151.012351 -549.198014 
L 151.009044 -550.708297 
L 151.005459 -552.21858 
L 151.001641 -553.728863 
L 150.99745 -555.239145 
L 150.992933 -556.749428 
L 154.434 -556.749428 
L 154.434 -556.749428 
L 154.434 -555.239145 
L 154.434 -553.728863 
L 154.434 -552.21858 
L 154.434 -550.708297 
L 154.434 -549.198014 
L 154.434 -547.687732 
L 154.434 -546.177449 
L 154.434 -544.667166 
L 154.434 -543.156883 
L 154.434 -541.646601 
L 154.434 -540.136318 
L 154.434 -538.626035 
L 154.434 -537.115752 
L 154.434 -535.60547 
L 154.434 -534.095187 
L 154.434 -532.584904 
L 154.434 -531.074621 
L 154.434 -529.564338 
L 154.434 -528.054056 
L 154.434 -526.543773 
L 154.434 -525.028456 
L 154.434 -523.518173 
L 154.434 -522.00789 
L 154.434 -520.497608 
L 154.434 -518.987325 
L 154.434 -517.477042 
L 154.434 -515.966759 
L 154.434 -514.456477 
L 154.434 -512.946194 
L 154.434 -511.435911 
L 154.434 -509.925628 
L 154.434 -508.415345 
L 154.434 -506.905063 
L 154.434 -505.39478 
L 154.434 -503.884497 
L 154.434 -502.374214 
L 154.434 -500.863932 
L 154.434 -499.353649 
L 154.434 -497.843366 
L 154.434 -496.333083 
L 154.434 -494.822801 
L 154.434 -493.312518 
L 154.434 -491.802235 
L 154.434 -490.291952 
L 154.434 -488.781669 
L 154.434 -487.271387 
L 154.434 -485.761104 
L 154.434 -484.250821 
L 154.434 -482.740538 
L 154.434 -481.230256 
L 154.434 -479.719973 
L 154.434 -478.20969 
L 154.434 -476.699407 
L 154.434 -475.189125 
L 154.434 -473.673808 
L 154.434 -472.163525 
L 154.434 -470.653242 
L 154.434 -469.142959 
L 154.434 -467.632676 
L 154.434 -466.122394 
L 154.434 -464.612111 
L 154.434 -463.101828 
L 154.434 -461.591545 
L 154.434 -460.081263 
L 154.434 -458.57098 
L 154.434 -457.060697 
L 154.434 -455.550414 
L 154.434 -454.040132 
L 154.434 -452.529849 
L 154.434 -451.019566 
L 154.434 -449.509283 
L 154.434 -447.999001 
L 154.434 -446.488718 
L 154.434 -444.978435 
L 154.434 -443.468152 
L 154.434 -441.957869 
L 154.434 -440.447587 
L 154.434 -438.937304 
L 154.434 -437.427021 
L 154.434 -435.916738 
L 154.434 -434.406456 
L 154.434 -432.896173 
L 154.434 -431.38589 
L 154.434 -429.875607 
L 154.434 -428.365325 
L 154.434 -426.855042 
L 154.434 -425.344759 
L 154.434 -423.829442 
L 154.434 -422.319159 
L 154.434 -420.808876 
L 154.434 -419.298594 
L 154.434 -417.788311 
L 154.434 -416.278028 
L 154.434 -414.767745 
L 154.434 -413.257463 
L 154.434 -411.74718 
L 154.434 -410.236897 
L 154.434 -408.726614 
L 154.434 -407.216332 
L 154.434 -405.706049 
L 154.434 -404.195766 
L 154.434 -402.685483 
L 154.434 -401.175201 
L 154.434 -399.664918 
L 154.434 -398.154635 
L 154.434 -396.644352 
L 154.434 -395.134069 
L 154.434 -393.623787 
L 154.434 -392.113504 
L 154.434 -390.603221 
L 154.434 -389.092938 
L 154.434 -387.582656 
L 154.434 -386.072373 
L 154.434 -384.56209 
L 154.434 -383.051807 
L 154.434 -381.541525 
L 154.434 -380.031242 
L 154.434 -378.520959 
L 154.434 -377.010676 
L 154.434 -375.500393 
L 154.434 -373.985076 
L 154.434 -372.474794 
L 154.434 -370.964511 
L 154.434 -369.454228 
L 154.434 -367.943945 
L 154.434 -366.433663 
L 154.434 -364.92338 
L 154.434 -363.413097 
L 154.434 -361.902814 
L 154.434 -360.392532 
L 154.434 -358.882249 
L 154.434 -357.371966 
L 154.434 -355.861683 
L 154.434 -354.3514 
L 154.434 -352.841118 
L 154.434 -351.330835 
L 154.434 -349.820552 
L 154.434 -348.310269 
L 154.434 -346.799987 
L 154.434 -345.289704 
L 154.434 -343.779421 
L 154.434 -342.269138 
L 154.434 -340.758856 
L 154.434 -339.248573 
L 154.434 -337.73829 
L 154.434 -336.228007 
L 154.434 -334.717725 
L 154.434 -333.207442 
L 154.434 -331.697159 
L 154.434 -330.186876 
L 154.434 -328.676593 
L 154.434 -327.166311 
L 154.434 -325.656028 
L 154.434 -324.145745 
L 154.434 -322.630428 
L 154.434 -321.120145 
L 154.434 -319.609863 
L 154.434 -318.09958 
L 154.434 -316.589297 
L 154.434 -315.079014 
L 154.434 -313.568732 
L 154.434 -312.058449 
L 154.434 -310.548166 
L 154.434 -309.037883 
L 154.434 -307.5276 
L 154.434 -306.017318 
L 154.434 -304.507035 
L 154.434 -302.996752 
L 154.434 -301.486469 
L 154.434 -299.976187 
L 154.434 -298.465904 
L 154.434 -296.955621 
L 154.434 -295.445338 
L 154.434 -293.935056 
L 154.434 -292.424773 
L 154.434 -290.91449 
L 154.434 -289.404207 
L 154.434 -287.893925 
L 154.434 -286.383642 
L 154.434 -284.873359 
L 154.434 -283.363076 
L 154.434 -281.852793 
L 154.434 -280.342511 
L 154.434 -278.832228 
L 154.434 -277.321945 
L 154.434 -275.811662 
L 154.434 -274.30138 
L 154.434 -272.786063 
L 154.434 -271.27578 
L 154.434 -269.765497 
L 154.434 -268.255214 
L 154.434 -266.744932 
L 154.434 -265.234649 
L 154.434 -263.724366 
L 154.434 -262.214083 
L 154.434 -260.7038 
L 154.434 -259.193518 
L 154.434 -257.683235 
L 154.434 -256.172952 
L 154.434 -254.662669 
L 154.434 -253.152387 
L 154.434 -251.642104 
L 154.434 -250.131821 
L 154.434 -248.621538 
L 154.434 -247.111256 
L 154.434 -245.600973 
L 154.434 -244.09069 
L 154.434 -242.580407 
L 154.434 -241.070124 
L 154.434 -239.559842 
L 154.434 -238.049559 
L 154.434 -236.538269 
L 154.434 -235.027483 
L 154.434 -233.5172 
L 154.434 -232.006918 
L 154.434 -230.496131 
L 154.434 -228.985849 
L 154.434 -227.475566 
L 154.434 -225.965283 
L 154.434 -224.454497 
L 154.434 -222.944214 
L 154.434 -221.433931 
L 154.434 -219.923145 
L 154.434 -218.412862 
L 154.434 -216.90258 
L 154.434 -215.391793 
L 154.434 -213.881511 
L 154.434 -212.371228 
L 154.434 -210.860945 
L 154.434 -209.350159 
L 154.434 -207.839876 
L 154.434 -206.329593 
L 154.434 -204.818807 
L 154.434 -203.308524 
L 154.434 -201.798242 
L 154.434 -200.287456 
L 154.434 -198.777173 
L 154.434 -197.26689 
L 154.434 -195.756607 
L 154.434 -194.245821 
L 154.434 -192.735538 
L 154.434 -191.225104 
L 154.434 -189.714671 
L 154.434 -188.204237 
L 154.434 -186.693803 
L 154.434 -185.183369 
L 154.434 -183.672935 
L 154.434 -182.162552 
L 154.434 -180.652269 
L 154.434 -179.141483 
L 154.434 -177.6312 
L 154.434 -176.120918 
L 154.434 -174.610131 
L 154.434 -173.099849 
L 154.434 -171.589566 
L 154.434 -170.07878 
L 154.434 -168.568497 
L 154.434 -167.058214 
L 154.434 -165.547931 
L 154.434 -164.037145 
L 154.434 -162.526862 
L 154.434 -161.01658 
L 154.434 -159.505793 
L 154.434 -157.995511 
L 154.434 -156.485228 
L 154.434 -154.974442 
L 154.434 -153.464159 
L 154.434 -151.953876 
L 154.434 -150.443593 
L 154.434 -148.932807 
L 154.434 -147.422524 
L 154.434 -145.912242 
L 154.434 -144.401455 
L 154.434 -142.891173 
L 154.434 -141.38089 
L 154.434 -139.870104 
L 154.434 -138.359821 
L 154.434 -136.850545 
L 154.434 -135.340262 
L 154.434 -133.82998 
L 154.434 -132.319697 
L 154.434 -130.809414 
L 154.434 -129.299131 
L 154.434 -127.788848 
L 154.434 -126.278566 
L 154.434 -124.768283 
L 154.434 -123.258 
L 154.434 -121.742683 
L 154.434 -120.2324 
L 154.434 -118.722118 
L 154.434 -117.211835 
L 154.434 -115.701552 
L 154.434 -114.191269 
L 154.434 -112.680987 
L 154.434 -111.170704 
L 154.434 -109.660421 
L 154.434 -108.150138 
L 154.434 -106.639855 
L 154.434 -105.129573 
L 154.434 -103.61929 
L 154.434 -102.109007 
L 154.434 -100.598724 
L 154.434 -99.088442 
L 154.434 -97.578159 
L 154.434 -96.067876 
L 154.434 -94.557593 
L 154.434 -93.047311 
L 154.434 -91.537028 
L 154.434 -90.026745 
L 154.434 -88.516462 
L 154.434 -87.00618 
L 154.434 -85.495897 
L 154.434 -83.985614 
L 154.434 -82.475331 
L 154.434 -80.965048 
L 154.434 -79.454766 
L 154.434 -77.944483 
L 154.434 -76.4342 
L 154.434 -74.923917 
L 154.434 -73.413635 
L 154.434 -71.898318 
L 154.434 -70.388035 
L 154.434 -68.877752 
L 154.434 -67.367469 
L 154.434 -65.857187 
L 154.434 -64.346904 
L 154.434 -62.836621 
L 154.434 -61.326338 
L 154.434 -59.816055 
L 154.434 -58.305773 
L 154.434 -56.79549 
L 154.434 -55.285207 
L 154.434 -53.774924 
L 154.434 -52.264642 
L 154.434 -50.754359 
L 154.434 -49.244076 
L 154.434 -47.733793 
L 154.434 -46.223511 
L 154.434 -44.713228 
L 154.434 -43.202945 
L 154.434 -41.692662 
L 154.434 -40.182379 
L 154.434 -556.749428 
L 154.434 -555.239145 
L 154.434 -553.728863 
L 154.434 -552.21858 
L 154.434 -550.708297 
L 154.434 -549.198014 
L 154.434 -547.687732 
L 154.434 -546.177449 
L 154.434 -544.667166 
L 154.434 -543.156883 
L 154.434 -541.646601 
L 154.434 -540.136318 
L 154.434 -538.626035 
L 154.434 -537.115752 
L 154.434 -535.60547 
L 154.434 -534.095187 
L 154.434 -532.584904 
L 154.434 -531.074621 
L 154.434 -529.564338 
L 154.434 -528.054056 
L 154.434 -526.543773 
L 154.434 -525.028456 
L 154.434 -523.518173 
L 154.434 -522.00789 
L 154.434 -520.497608 
L 154.434 -518.987325 
L 154.434 -517.477042 
L 154.434 -515.966759 
L 154.434 -514.456477 
L 154.434 -512.946194 
L 154.434 -511.435911 
L 154.434 -509.925628 
L 154.434 -508.415345 
L 154.434 -506.905063 
L 154.434 -505.39478 
L 154.434 -503.884497 
L 154.434 -502.374214 
L 154.434 -500.863932 
L 154.434 -499.353649 
L 154.434 -497.843366 
L 154.434 -496.333083 
L 154.434 -494.822801 
L 154.434 -493.312518 
L 154.434 -491.802235 
L 154.434 -490.291952 
L 154.434 -488.781669 
L 154.434 -487.271387 
L 154.434 -485.761104 
L 154.434 -484.250821 
L 154.434 -482.740538 
L 154.434 -481.230256 
L 154.434 -479.719973 
L 154.434 -478.20969 
L 154.434 -476.699407 
L 154.434 -475.189125 
L 154.434 -473.673808 
L 154.434 -472.163525 
L 154.434 -470.653242 
L 154.434 -469.142959 
L 154.434 -467.632676 
L 154.434 -466.122394 
L 154.434 -464.612111 
L 154.434 -463.101828 
L 154.434 -461.591545 
L 154.434 -460.081263 
L 154.434 -458.57098 
L 154.434 -457.060697 
L 154.434 -455.550414 
L 154.434 -454.040132 
L 154.434 -452.529849 
L 154.434 -451.019566 
L 154.434 -449.509283 
L 154.434 -447.999001 
L 154.434 -446.488718 
L 154.434 -444.978435 
L 154.434 -443.468152 
L 154.434 -441.957869 
L 154.434 -440.447587 
L 154.434 -438.937304 
L 154.434 -437.427021 
L 154.434 -435.916738 
L 154.434 -434.406456 
L 154.434 -432.896173 
L 154.434 -431.38589 
L 154.434 -429.875607 
L 154.434 -428.365325 
L 154.434 -426.855042 
L 154.434 -425.344759 
L 154.434 -423.829442 
L 154.434 -422.319159 
L 154.434 -420.808876 
L 154.434 -419.298594 
L 154.434 -417.788311 
L 154.434 -416.278028 
L 154.434 -414.767745 
L 154.434 -413.257463 
L 154.434 -411.74718 
L 154.434 -410.236897 
L 154.434 -408.726614 
L 154.434 -407.216332 
L 154.434 -405.706049 
L 154.434 -404.195766 
L 154.434 -402.685483 
L 154.434 -401.175201 
L 154.434 -399.664918 
L 154.434 -398.154635 
L 154.434 -396.644352 
L 154.434 -395.134069 
L 154.434 -393.623787 
L 154.434 -392.113504 
L 154.434 -390.603221 
L 154.434 -389.092938 
L 154.434 -387.582656 
L 154.434 -386.072373 
L 154.434 -384.56209 
L 154.434 -383.051807 
L 154.434 -381.541525 
L 154.434 -380.031242 
L 154.434 -378.520959 
L 154.434 -377.010676 
L 154.434 -375.500393 
L 154.434 -373.985076 
L 154.434 -372.474794 
L 154.434 -370.964511 
L 154.434 -369.454228 
L 154.434 -367.943945 
L 154.434 -366.433663 
L 154.434 -364.92338 
L 154.434 -363.413097 
L 154.434 -361.902814 
L 154.434 -360.392532 
L 154.434 -358.882249 
L 154.434 -357.371966 
L 154.434 -355.861683 
L 154.434 -354.3514 
L 154.434 -352.841118 
L 154.434 -351.330835 
L 154.434 -349.820552 
L 154.434 -348.310269 
L 154.434 -346.799987 
L 154.434 -345.289704 
L 154.434 -343.779421 
L 154.434 -342.269138 
L 154.434 -340.758856 
L 154.434 -339.248573 
L 154.434 -337.73829 
L 154.434 -336.228007 
L 154.434 -334.717725 
L 154.434 -333.207442 
L 154.434 -331.697159 
L 154.434 -330.186876 
L 154.434 -328.676593 
L 154.434 -327.166311 
L 154.434 -325.656028 
L 154.434 -324.145745 
L 154.434 -322.630428 
L 154.434 -321.120145 
L 154.434 -319.609863 
L 154.434 -318.09958 
L 154.434 -316.589297 
L 154.434 -315.079014 
L 154.434 -313.568732 
L 154.434 -312.058449 
L 154.434 -310.548166 
L 154.434 -309.037883 
L 154.434 -307.5276 
L 154.434 -306.017318 
L 154.434 -304.507035 
L 154.434 -302.996752 
L 154.434 -301.486469 
L 154.434 -299.976187 
L 154.434 -298.465904 
L 154.434 -296.955621 
L 154.434 -295.445338 
L 154.434 -293.935056 
L 154.434 -292.424773 
L 154.434 -290.91449 
L 154.434 -289.404207 
L 154.434 -287.893925 
L 154.434 -286.383642 
L 154.434 -284.873359 
L 154.434 -283.363076 
L 154.434 -281.852793 
L 154.434 -280.342511 
L 154.434 -278.832228 
L 154.434 -277.321945 
L 154.434 -275.811662 
L 154.434 -274.30138 
L 154.434 -272.786063 
L 154.434 -271.27578 
L 154.434 -269.765497 
L 154.434 -268.255214 
L 154.434 -266.744932 
L 154.434 -265.234649 
L 154.434 -263.724366 
L 154.434 -262.214083 
L 154.434 -260.7038 
L 154.434 -259.193518 
L 154.434 -257.683235 
L 154.434 -256.172952 
L 154.434 -254.662669 
L 154.434 -253.152387 
L 154.434 -251.642104 
L 154.434 -250.131821 
L 154.434 -248.621538 
L 154.434 -247.111256 
L 154.434 -245.600973 
L 154.434 -244.09069 
L 154.434 -242.580407 
L 154.434 -241.070124 
L 154.434 -239.559842 
L 154.434 -238.049559 
L 154.434 -236.538269 
L 154.434 -235.027483 
L 154.434 -233.5172 
L 154.434 -232.006918 
L 154.434 -230.496131 
L 154.434 -228.985849 
L 154.434 -227.475566 
L 154.434 -225.965283 
L 154.434 -224.454497 
L 154.434 -222.944214 
L 154.434 -221.433931 
L 154.434 -219.923145 
L 154.434 -218.412862 
L 154.434 -216.90258 
L 154.434 -215.391793 
L 154.434 -213.881511 
L 154.434 -212.371228 
L 154.434 -210.860945 
L 154.434 -209.350159 
L 154.434 -207.839876 
L 154.434 -206.329593 
L 154.434 -204.818807 
L 154.434 -203.308524 
L 154.434 -201.798242 
L 154.434 -200.287456 
L 154.434 -198.777173 
L 154.434 -197.26689 
L 154.434 -195.756607 
L 154.434 -194.245821 
L 154.434 -192.735538 
L 154.434 -191.225104 
L 154.434 -189.714671 
L 154.434 -188.204237 
L 154.434 -186.693803 
L 154.434 -185.183369 
L 154.434 -183.672935 
L 154.434 -182.162552 
L 154.434 -180.652269 
L 154.434 -179.141483 
L 154.434 -177.6312 
L 154.434 -176.120918 
L 154.434 -174.610131 
L 154.434 -173.099849 
L 154.434 -171.589566 
L 154.434 -170.07878 
L 154.434 -168.568497 
L 154.434 -167.058214 
L 154.434 -165.547931 
L 154.434 -164.037145 
L 154.434 -162.526862 
L 154.434 -161.01658 
L 154.434 -159.505793 
L 154.434 -157.995511 
L 154.434 -156.485228 
L 154.434 -154.974442 
L 154.434 -153.464159 
L 154.434 -151.953876 
L 154.434 -150.443593 
L 154.434 -148.932807 
L 154.434 -147.422524 
L 154.434 -145.912242 
L 154.434 -144.401455 
L 154.434 -142.891173 
L 154.434 -141.38089 
L 154.434 -139.870104 
L 154.434 -138.359821 
L 154.434 -136.850545 
L 154.434 -135.340262 
L 154.434 -133.82998 
L 154.434 -132.319697 
L 154.434 -130.809414 
L 154.434 -129.299131 
L 154.434 -127.788848 
L 154.434 -126.278566 
L 154.434 -124.768283 
L 154.434 -123.258 
L 154.434 -121.742683 
L 154.434 -120.2324 
L 154.434 -118.722118 
L 154.434 -117.211835 
L 154.434 -115.701552 
L 154.434 -114.191269 
L 154.434 -112.680987 
L 154.434 -111.170704 
L 154.434 -109.660421 
L 154.434 -108.150138 
L 154.434 -106.639855 
L 154.434 -105.129573 
L 154.434 -103.61929 
L 154.434 -102.109007 
L 154.434 -100.598724 
L 154.434 -99.088442 
L 154.434 -97.578159 
L 154.434 -96.067876 
L 154.434 -94.557593 
L 154.434 -93.047311 
L 154.434 -91.537028 
L 154.434 -90.026745 
L 154.434 -88.516462 
L 154.434 -87.00618 
L 154.434 -85.495897 
L 154.434 -83.985614 
L 154.434 -82.475331 
L 154.434 -80.965048 
L 154.434 -79.454766 
L 154.434 -77.944483 
L 154.434 -76.4342 
L 154.434 -74.923917 
L 154.434 -73.413635 
L 154.434 -71.898318 
L 154.434 -70.388035 
L 154.434 -68.877752 
L 154.434 -67.367469 
L 154.434 -65.857187 
L 154.434 -64.346904 
L 154.434 -62.836621 
L 154.434 -61.326338 
L 154.434 -59.816055 
L 154.434 -58.305773 
L 154.434 -56.79549 
L 154.434 -55.285207 
L 154.434 -53.774924 
L 154.434 -52.264642 
L 154.434 -50.754359 
L 154.434 -49.244076 
L 154.434 -47.733793 
L 154.434 -46.223511 
L 154.434 -44.713228 
L 154.434 -43.202945 
L 154.434 -41.692662 
L 154.434 -40.182379 
z
" style="stroke: #000000; stroke-opacity: 0.3"/>
    </defs>
    <g clip-path="url(#pbc4904dc15)">
     <use xlink:href="#m00ec8755fe" x="0" y="576" style="fill-opacity: 0.3; stroke: #000000; stroke-opacity: 0.3"/>
    </g>
   </g>
   <g id="matplotlib.axis_1">
    <g id="text_1">
     <!-- DOS -->
     <g transform="translate(134.705719 561.597188) scale(0.18 -0.18)">
      <defs>
       <path id="DejaVuSans-44" d="M 1259 4147 
L 1259 519 
L 2022 519 
Q 2988 519 3436 956 
Q 3884 1394 3884 2338 
Q 3884 3275 3436 3711 
Q 2988 4147 2022 4147 
L 1259 4147 
z
M 628 4666 
L 1925 4666 
Q 3281 4666 3915 4102 
Q 4550 3538 4550 2338 
Q 4550 1131 3912 565 
Q 3275 0 1925 0 
L 628 0 
L 628 4666 
z
" transform="scale(0.015625)"/>
       <path id="DejaVuSans-4f" d="M 2522 4238 
Q 1834 4238 1429 3725 
Q 1025 3213 1025 2328 
Q 1025 1447 1429 934 
Q 1834 422 2522 422 
Q 3209 422 3611 934 
Q 4013 1447 4013 2328 
Q 4013 3213 3611 3725 
Q 3209 4238 2522 4238 
z
M 2522 4750 
Q 3503 4750 4090 4092 
Q 4678 3434 4678 2328 
Q 4678 1225 4090 567 
Q 3503 -91 2522 -91 
Q 1538 -91 948 565 
Q 359 1222 359 2328 
Q 359 3434 948 4092 
Q 1538 4750 2522 4750 
z
" transform="scale(0.015625)"/>
       <path id="DejaVuSans-53" d="M 3425 4513 
L 3425 3897 
Q 3066 4069 2747 4153 
Q 2428 4238 2131 4238 
Q 1616 4238 1336 4038 
Q 1056 3838 1056 3469 
Q 1056 3159 1242 3001 
Q 1428 2844 1947 2747 
L 2328 2669 
Q 3034 2534 3370 2195 
Q 3706 1856 3706 1288 
Q 3706 609 3251 259 
Q 2797 -91 1919 -91 
Q 1588 -91 1214 -16 
Q 841 59 441 206 
L 441 856 
Q 825 641 1194 531 
Q 1563 422 1919 422 
Q 2459 422 2753 634 
Q 3047 847 3047 1241 
Q 3047 1584 2836 1778 
Q 2625 1972 2144 2069 
L 1759 2144 
Q 1053 2284 737 2584 
Q 422 2884 422 3419 
Q 422 4038 858 4394 
Q 1294 4750 2059 4750 
Q 2388 4750 2728 4690 
Q 3069 4631 3425 4513 
z
" transform="scale(0.015625)"/>
      </defs>
      <use xlink:href="#DejaVuSans-44"/>
      <use xlink:href="#DejaVuSans-4f" transform="translate(77.001953 0)"/>
      <use xlink:href="#DejaVuSans-53" transform="translate(155.712891 0)"/>
     </g>
    </g>
   </g>
   <g id="matplotlib.axis_2">
    <g id="ytick_1">
     <g id="line2d_1">
      <defs>
       <path id="m9275f74c65" d="M 0 0 
L -3.5 0 
" style="stroke: #000000; stroke-width: 0.8"/>
      </defs>
      <g>
       <use xlink:href="#m9275f74c65" x="84.998" y="480.866746" style="stroke: #000000; stroke-width: 0.8"/>
      </g>
     </g>
     <g id="text_2">
      <!-- −0.5 -->
      <g transform="translate(34.288938 487.70534) scale(0.18 -0.18)">
       <defs>
        <path id="DejaVuSans-2212" d="M 678 2272 
L 4684 2272 
L 4684 1741 
L 678 1741 
L 678 2272 
z
" transform="scale(0.015625)"/>
        <path id="DejaVuSans-30" d="M 2034 4250 
Q 1547 4250 1301 3770 
Q 1056 3291 1056 2328 
Q 1056 1369 1301 889 
Q 1547 409 2034 409 
Q 2525 409 2770 889 
Q 3016 1369 3016 2328 
Q 3016 3291 2770 3770 
Q 2525 4250 2034 4250 
z
M 2034 4750 
Q 2819 4750 3233 4129 
Q 3647 3509 3647 2328 
Q 3647 1150 3233 529 
Q 2819 -91 2034 -91 
Q 1250 -91 836 529 
Q 422 1150 422 2328 
Q 422 3509 836 4129 
Q 1250 4750 2034 4750 
z
" transform="scale(0.015625)"/>
        <path id="DejaVuSans-2e" d="M 684 794 
L 1344 794 
L 1344 0 
L 684 0 
L 684 794 
z
" transform="scale(0.015625)"/>
        <path id="DejaVuSans-35" d="M 691 4666 
L 3169 4666 
L 3169 4134 
L 1269 4134 
L 1269 2991 
Q 1406 3038 1543 3061 
Q 1681 3084 1819 3084 
Q 2600 3084 3056 2656 
Q 3513 2228 3513 1497 
Q 3513 744 3044 326 
Q 2575 -91 1722 -91 
Q 1428 -91 1123 -41 
Q 819 9 494 109 
L 494 744 
Q 775 591 1075 516 
Q 1375 441 1709 441 
Q 2250 441 2565 725 
Q 2881 1009 2881 1497 
Q 2881 1984 2565 2268 
Q 2250 2553 1709 2553 
Q 1456 2553 1204 2497 
Q 953 2441 691 2322 
L 691 4666 
z
" transform="scale(0.015625)"/>
       </defs>
       <use xlink:href="#DejaVuSans-2212"/>
       <use xlink:href="#DejaVuSans-30" transform="translate(83.789062 0)"/>
       <use xlink:href="#DejaVuSans-2e" transform="translate(147.412109 0)"/>
       <use xlink:href="#DejaVuSans-35" transform="translate(179.199219 0)"/>
      </g>
     </g>
    </g>
    <g id="ytick_2">
     <g id="line2d_2">
      <g>
       <use xlink:href="#m9275f74c65" x="84.998" y="388.36368" style="stroke: #000000; stroke-width: 0.8"/>
      </g>
     </g>
     <g id="text_3">
      <!-- 0.0 -->
      <g transform="translate(49.372375 395.202274) scale(0.18 -0.18)">
       <use xlink:href="#DejaVuSans-30"/>
       <use xlink:href="#DejaVuSans-2e" transform="translate(63.623047 0)"/>
       <use xlink:href="#DejaVuSans-30" transform="translate(95.410156 0)"/>
      </g>
     </g>
    </g>
    <g id="ytick_3">
     <g id="line2d_3">
      <g>
       <use xlink:href="#m9275f74c65" x="84.998" y="295.860613" style="stroke: #000000; stroke-width: 0.8"/>
      </g>
     </g>
     <g id="text_4">
      <!-- 0.5 -->
      <g transform="translate(49.372375 302.699207) scale(0.18 -0.18)">
       <use xlink:href="#DejaVuSans-30"/>
       <use xlink:href="#DejaVuSans-2e" transform="translate(63.623047 0)"/>
       <use xlink:href="#DejaVuSans-35" transform="translate(95.410156 0)"/>
      </g>
     </g>
    </g>
    <g id="ytick_4">
     <g id="line2d_4">
      <g>
       <use xlink:href="#m9275f74c65" x="84.998" y="203.357547" style="stroke: #000000; stroke-width: 0.8"/>
      </g>
     </g>
     <g id="text_5">
      <!-- 1.0 -->
      <g transform="translate(49.372375 210.196141) scale(0.18 -0.18)">
       <defs>
        <path id="DejaVuSans-31" d="M 794 531 
L 1825 531 
L 1825 4091 
L 703 3866 
L 703 4441 
L 1819 4666 
L 2450 4666 
L 2450 531 
L 3481 531 
L 3481 0 
L 794 0 
L 794 531 
z
" transform="scale(0.015625)"/>
       </defs>
       <use xlink:href="#DejaVuSans-31"/>
       <use xlink:href="#DejaVuSans-2e" transform="translate(63.623047 0)"/>
       <use xlink:href="#DejaVuSans-30" transform="translate(95.410156 0)"/>
      </g>
     </g>
    </g>
    <g id="ytick_5">
     <g id="line2d_5">
      <g>
       <use xlink:href="#m9275f74c65" x="84.998" y="110.85448" style="stroke: #000000; stroke-width: 0.8"/>
      </g>
     </g>
     <g id="text_6">
      <!-- 1.5 -->
      <g transform="translate(49.372375 117.693074) scale(0.18 -0.18)">
       <use xlink:href="#DejaVuSans-31"/>
       <use xlink:href="#DejaVuSans-2e" transform="translate(63.623047 0)"/>
       <use xlink:href="#DejaVuSans-35" transform="translate(95.410156 0)"/>
      </g>
     </g>
    </g>
    <g id="ytick_6">
     <g id="line2d_6">
      <g>
       <use xlink:href="#m9275f74c65" x="84.998" y="18.351414" style="stroke: #000000; stroke-width: 0.8"/>
      </g>
     </g>
     <g id="text_7">
      <!-- 2.0 -->
      <g transform="translate(49.372375 25.190008) scale(0.18 -0.18)">
       <defs>
        <path id="DejaVuSans-32" d="M 1228 531 
L 3431 531 
L 3431 0 
L 469 0 
L 469 531 
Q 828 903 1448 1529 
Q 2069 2156 2228 2338 
Q 2531 2678 2651 2914 
Q 2772 3150 2772 3378 
Q 2772 3750 2511 3984 
Q 2250 4219 1831 4219 
Q 1534 4219 1204 4116 
Q 875 4013 500 3803 
L 500 4441 
Q 881 4594 1212 4672 
Q 1544 4750 1819 4750 
Q 2544 4750 2975 4387 
Q 3406 4025 3406 3419 
Q 3406 3131 3298 2873 
Q 3191 2616 2906 2266 
Q 2828 2175 2409 1742 
Q 1991 1309 1228 531 
z
" transform="scale(0.015625)"/>
       </defs>
       <use xlink:href="#DejaVuSans-32"/>
       <use xlink:href="#DejaVuSans-2e" transform="translate(63.623047 0)"/>
       <use xlink:href="#DejaVuSans-30" transform="translate(95.410156 0)"/>
      </g>
     </g>
    </g>
    <g id="text_8">
     <!-- $E-E_f$ (eV) -->
     <g transform="translate(26.129562 329.06) rotate(-90) scale(0.2 -0.2)">
      <defs>
       <path id="DejaVuSans-Oblique-45" d="M 1081 4666 
L 4031 4666 
L 3928 4134 
L 1606 4134 
L 1338 2753 
L 3566 2753 
L 3463 2222 
L 1234 2222 
L 909 531 
L 3284 531 
L 3181 0 
L 172 0 
L 1081 4666 
z
" transform="scale(0.015625)"/>
       <path id="DejaVuSans-Oblique-66" d="M 3059 4863 
L 2969 4384 
L 2419 4384 
Q 2106 4384 1964 4261 
Q 1822 4138 1753 3809 
L 1691 3500 
L 2638 3500 
L 2553 3053 
L 1606 3053 
L 1013 0 
L 434 0 
L 1031 3053 
L 481 3053 
L 563 3500 
L 1113 3500 
L 1159 3744 
Q 1278 4363 1576 4613 
Q 1875 4863 2516 4863 
L 3059 4863 
z
" transform="scale(0.015625)"/>
       <path id="DejaVuSans-20" transform="scale(0.015625)"/>
       <path id="DejaVuSans-28" d="M 1984 4856 
Q 1566 4138 1362 3434 
Q 1159 2731 1159 2009 
Q 1159 1288 1364 580 
Q 1569 -128 1984 -844 
L 1484 -844 
Q 1016 -109 783 600 
Q 550 1309 550 2009 
Q 550 2706 781 3412 
Q 1013 4119 1484 4856 
L 1984 4856 
z
" transform="scale(0.015625)"/>
       <path id="DejaVuSans-65" d="M 3597 1894 
L 3597 1613 
L 953 1613 
Q 991 1019 1311 708 
Q 1631 397 2203 397 
Q 2534 397 2845 478 
Q 3156 559 3463 722 
L 3463 178 
Q 3153 47 2828 -22 
Q 2503 -91 2169 -91 
Q 1331 -91 842 396 
Q 353 884 353 1716 
Q 353 2575 817 3079 
Q 1281 3584 2069 3584 
Q 2775 3584 3186 3129 
Q 3597 2675 3597 1894 
z
M 3022 2063 
Q 3016 2534 2758 2815 
Q 2500 3097 2075 3097 
Q 1594 3097 1305 2825 
Q 1016 2553 972 2059 
L 3022 2063 
z
" transform="scale(0.015625)"/>
       <path id="DejaVuSans-56" d="M 1831 0 
L 50 4666 
L 709 4666 
L 2188 738 
L 3669 4666 
L 4325 4666 
L 2547 0 
L 1831 0 
z
" transform="scale(0.015625)"/>
       <path id="DejaVuSans-29" d="M 513 4856 
L 1013 4856 
Q 1481 4119 1714 3412 
Q 1947 2706 1947 2009 
Q 1947 1309 1714 600 
Q 1481 -109 1013 -844 
L 513 -844 
Q 928 -128 1133 580 
Q 1338 1288 1338 2009 
Q 1338 2731 1133 3434 
Q 928 4138 513 4856 
z
" transform="scale(0.015625)"/>
      </defs>
      <use xlink:href="#DejaVuSans-Oblique-45" transform="translate(0 0.125)"/>
      <use xlink:href="#DejaVuSans-2212" transform="translate(82.666016 0.125)"/>
      <use xlink:href="#DejaVuSans-Oblique-45" transform="translate(185.9375 0.125)"/>
      <use xlink:href="#DejaVuSans-Oblique-66" transform="translate(249.121094 -16.28125) scale(0.7)"/>
      <use xlink:href="#DejaVuSans-20" transform="translate(276.499023 0.125)"/>
      <use xlink:href="#DejaVuSans-28" transform="translate(308.286133 0.125)"/>
      <use xlink:href="#DejaVuSans-65" transform="translate(347.299805 0.125)"/>
      <use xlink:href="#DejaVuSans-56" transform="translate(408.823242 0.125)"/>
      <use xlink:href="#DejaVuSans-29" transform="translate(477.231445 0.125)"/>
     </g>
    </g>
   </g>
   <g id="line2d_7">
    <path d="M 154.570696 535.817621 
L 154.494418 448.211152 
L 154.579674 404.410434 
L 155.88413 389.306197 
L 156.671825 372.691476 
L 157.303341 354.566069 
L 157.693044 336.440158 
L 157.982865 310.765351 
L 158.78155 223.158882 
L 159.834154 141.593544 
L 159.821115 117.42902 
L 159.592946 96.280027 
L 159.133815 73.625786 
L 158.283583 43.415096 
L 157.855649 26.801986 
L 157.875067 19.250572 
L 154.297304 535.817621 
L 154.337783 514.673662 
L 154.376036 422.535841 
L 154.288326 404.410434 
L 152.98387 389.306197 
L 152.196175 372.691476 
L 151.564659 354.566069 
L 151.174956 336.440158 
L 150.885135 310.765351 
L 150.08645 223.158882 
L 149.033846 141.593544 
L 149.046885 117.42902 
L 149.275054 96.280027 
L 149.734185 73.625786 
L 150.584417 43.415096 
L 151.012351 26.801986 
L 150.992933 19.250572 
L 150.992933 19.250572 
" clip-path="url(#pbc4904dc15)" style="fill: none; stroke: #000000; stroke-opacity: 0.8; stroke-width: 2; stroke-linecap: square"/>
   </g>
   <g id="line2d_8">
    <path d="M 154.434 543.92 
L 154.434 537.327903 
L 175.20529 535.817621 
L 173.369228 525.245641 
L 171.767389 514.673662 
L 170.403963 504.101682 
L 169.264516 493.524669 
L 168.187931 481.442407 
L 166.843597 463.319013 
L 165.141177 440.659738 
L 163.889042 427.067193 
L 162.415722 413.473138 
L 161.528192 405.92122 
L 162.001293 404.410434 
L 168.0338 390.816631 
L 169.965786 384.774896 
L 176.505387 365.139055 
L 176.946359 363.628772 
L 177.533079 360.608207 
L 178.435044 354.566069 
L 179.082299 348.524434 
L 179.206628 347.014151 
L 179.830135 343.993082 
L 181.102293 337.950441 
L 182.448955 330.399027 
L 183.806328 321.337331 
L 185.566022 307.744786 
L 188.102423 288.106075 
L 189.881675 276.023813 
L 191.880249 263.941551 
L 194.355183 250.343972 
L 201.990927 209.566337 
L 203.6533 198.989324 
L 204.863993 189.927627 
L 205.84186 180.865931 
L 206.544993 171.804234 
L 206.912857 164.25282 
L 207.066522 156.701406 
L 206.996674 149.144958 
L 206.712627 141.593544 
L 206.200411 134.042131 
L 205.478652 126.490717 
L 204.54735 118.939303 
L 203.420475 111.387889 
L 201.832605 102.326192 
L 200.013773 93.259462 
L 197.646869 82.687482 
L 194.69604 70.60522 
L 190.387372 53.99211 
L 184.098291 29.822551 
L 183.751846 26.801986 
L 183.174905 19.250572 
L 133.66271 535.817621 
L 135.498772 525.245641 
L 137.100611 514.673662 
L 138.464037 504.101682 
L 139.603484 493.524669 
L 140.680069 481.442407 
L 142.024403 463.319013 
L 143.726823 440.659738 
L 144.978958 427.067193 
L 146.452278 413.473138 
L 147.339808 405.92122 
L 146.866707 404.410434 
L 140.8342 390.816631 
L 138.902214 384.774896 
L 132.362613 365.139055 
L 131.921641 363.628772 
L 131.334921 360.608207 
L 130.432956 354.566069 
L 129.785701 348.524434 
L 129.661372 347.014151 
L 129.037865 343.993082 
L 127.765707 337.950441 
L 126.419045 330.399027 
L 125.061672 321.337331 
L 123.301978 307.744786 
L 120.765577 288.106075 
L 118.986325 276.023813 
L 116.987751 263.941551 
L 114.512817 250.343972 
L 106.877073 209.566337 
L 105.2147 198.989324 
L 104.004007 189.927627 
L 103.02614 180.865931 
L 102.323007 171.804234 
L 101.955143 164.25282 
L 101.801478 156.701406 
L 101.871326 149.144958 
L 102.155373 141.593544 
L 102.667589 134.042131 
L 103.389348 126.490717 
L 104.32065 118.939303 
L 105.447525 111.387889 
L 107.035395 102.326192 
L 108.854227 93.259462 
L 111.221131 82.687482 
L 114.17196 70.60522 
L 118.480628 53.99211 
L 124.769709 29.822551 
L 125.116154 26.801986 
L 125.693095 19.250572 
L 154.434 17.740289 
L 154.434 10.8 
L 154.434 10.8 
" clip-path="url(#pbc4904dc15)" style="fill: none; stroke: #2e7b75; stroke-opacity: 0.8; stroke-width: 1.8; stroke-linecap: square"/>
   </g>
   <g id="line2d_9">
    <path d="M 154.434 543.92 
L 154.434 537.327903 
L 155.327631 535.817621 
L 155.025423 478.421841 
L 154.819415 404.410434 
L 155.788858 384.774896 
L 156.648962 360.608207 
L 157.142179 336.440158 
L 157.561405 306.234503 
L 158.206843 262.431268 
L 159.487244 185.396779 
L 159.612504 161.232255 
L 159.521236 137.062696 
L 159.19528 111.387889 
L 158.577129 81.177199 
L 157.220129 19.250572 
L 153.540369 535.817621 
L 153.842577 478.421841 
L 154.048585 404.410434 
L 153.079142 384.774896 
L 152.219038 360.608207 
L 151.725821 336.440158 
L 151.306595 306.234503 
L 150.661157 262.431268 
L 149.380756 185.396779 
L 149.255496 161.232255 
L 149.346764 137.062696 
L 149.67272 111.387889 
L 150.290871 81.177199 
L 151.647871 19.250572 
L 154.434 17.740289 
L 154.434 10.8 
L 154.434 10.8 
" clip-path="url(#pbc4904dc15)" style="fill: none; stroke: #3ea49c; stroke-opacity: 0.8; stroke-width: 2; stroke-linecap: square"/>
   </g>
   <g id="line2d_10">
    <path d="M 154.434 543.92 
L 154.434 537.327903 
L 176.23531 535.817621 
L 174.305652 525.245641 
L 172.61953 514.673662 
L 171.183929 504.101682 
L 169.983481 493.524669 
L 168.851483 481.442407 
L 167.555111 464.829296 
L 165.672485 440.659738 
L 164.368196 427.067193 
L 162.826426 413.473138 
L 161.892796 405.92122 
L 162.5326 404.410434 
L 170.525498 390.816631 
L 173.006486 384.774896 
L 179.362155 369.670407 
L 181.662471 363.628772 
L 182.434054 360.608207 
L 183.382585 356.076855 
L 184.156497 351.545503 
L 185.100837 345.503869 
L 186.663096 339.461731 
L 188.003705 333.419593 
L 189.435116 325.868179 
L 190.909367 316.806482 
L 196.946065 277.534096 
L 199.210991 265.451834 
L 201.711536 253.369572 
L 205.390178 236.751427 
L 210.046687 215.607468 
L 212.165399 205.035489 
L 213.781208 195.968758 
L 215.159534 186.907062 
L 216.253814 177.845365 
L 216.929008 170.293951 
L 217.366719 162.742537 
L 217.55298 155.191124 
L 217.478476 147.634675 
L 217.143207 140.083262 
L 216.547174 132.531848 
L 215.690376 124.980434 
L 214.582127 117.42902 
L 213.241052 109.877606 
L 211.676465 102.326192 
L 209.539128 93.259462 
L 207.150339 84.197765 
L 204.114295 73.625786 
L 199.938338 60.033241 
L 190.404135 29.822551 
L 190.146165 28.312268 
L 189.402055 19.250572 
L 132.63269 535.817621 
L 134.562348 525.245641 
L 136.24847 514.673662 
L 137.684071 504.101682 
L 138.884519 493.524669 
L 140.016517 481.442407 
L 141.312889 464.829296 
L 143.195515 440.659738 
L 144.499804 427.067193 
L 146.041574 413.473138 
L 146.975204 405.92122 
L 146.3354 404.410434 
L 138.342502 390.816631 
L 135.861514 384.774896 
L 129.505845 369.670407 
L 127.205529 363.628772 
L 126.433946 360.608207 
L 125.485415 356.076855 
L 124.711503 351.545503 
L 123.767163 345.503869 
L 122.204904 339.461731 
L 120.864295 333.419593 
L 119.432884 325.868179 
L 117.958633 316.806482 
L 111.921935 277.534096 
L 109.657009 265.451834 
L 107.156464 253.369572 
L 103.477822 236.751427 
L 98.821313 215.607468 
L 96.702601 205.035489 
L 95.086792 195.968758 
L 93.708466 186.907062 
L 92.614186 177.845365 
L 91.938992 170.293951 
L 91.501281 162.742537 
L 91.31502 155.191124 
L 91.389524 147.634675 
L 91.724793 140.083262 
L 92.320826 132.531848 
L 93.177624 124.980434 
L 94.285873 117.42902 
L 95.626948 109.877606 
L 97.191535 102.326192 
L 99.328872 93.259462 
L 101.717661 84.197765 
L 104.753705 73.625786 
L 108.929662 60.033241 
L 118.463865 29.822551 
L 118.721835 28.312268 
L 119.465945 19.250572 
L 154.434 17.740289 
L 154.434 10.8 
L 154.434 10.8 
" clip-path="url(#pbc4904dc15)" style="fill: none; stroke: #4ecdc4; stroke-opacity: 0.8; stroke-width: 2.2; stroke-linecap: square"/>
   </g>
   <g id="line2d_11">
    <path d="M 154.434 543.92 
L 154.434 537.327903 
L 176.23531 535.817621 
L 174.305652 525.245641 
L 172.61953 514.673662 
L 171.183929 504.101682 
L 169.983481 493.524669 
L 168.851483 481.442407 
L 167.555111 464.829296 
L 165.672485 440.659738 
L 164.368196 427.067193 
L 162.826426 413.473138 
L 161.892796 405.92122 
L 162.5326 404.410434 
L 170.525498 390.816631 
L 173.006486 384.774896 
L 179.362155 369.670407 
L 181.662471 363.628772 
L 182.434054 360.608207 
L 183.382585 356.076855 
L 184.156497 351.545503 
L 185.100837 345.503869 
L 186.663096 339.461731 
L 188.003705 333.419593 
L 189.435116 325.868179 
L 190.909367 316.806482 
L 196.946065 277.534096 
L 199.210991 265.451834 
L 201.711536 253.369572 
L 205.390178 236.751427 
L 210.046687 215.607468 
L 212.165399 205.035489 
L 213.781208 195.968758 
L 215.159534 186.907062 
L 216.253814 177.845365 
L 216.929008 170.293951 
L 217.366719 162.742537 
L 217.55298 155.191124 
L 217.478476 147.634675 
L 217.143207 140.083262 
L 216.547174 132.531848 
L 215.690376 124.980434 
L 214.582127 117.42902 
L 213.241052 109.877606 
L 211.676465 102.326192 
L 209.539128 93.259462 
L 207.150339 84.197765 
L 204.114295 73.625786 
L 199.938338 60.033241 
L 190.404135 29.822551 
L 190.146165 28.312268 
L 189.402055 19.250572 
L 132.63269 535.817621 
L 134.562348 525.245641 
L 136.24847 514.673662 
L 137.684071 504.101682 
L 138.884519 493.524669 
L 140.016517 481.442407 
L 141.312889 464.829296 
L 143.195515 440.659738 
L 144.499804 427.067193 
L 146.041574 413.473138 
L 146.975204 405.92122 
L 146.3354 404.410434 
L 138.342502 390.816631 
L 135.861514 384.774896 
L 129.505845 369.670407 
L 127.205529 363.628772 
L 126.433946 360.608207 
L 125.485415 356.076855 
L 124.711503 351.545503 
L 123.767163 345.503869 
L 122.204904 339.461731 
L 120.864295 333.419593 
L 119.432884 325.868179 
L 117.958633 316.806482 
L 111.921935 277.534096 
L 109.657009 265.451834 
L 107.156464 253.369572 
L 103.477822 236.751427 
L 98.821313 215.607468 
L 96.702601 205.035489 
L 95.086792 195.968758 
L 93.708466 186.907062 
L 92.614186 177.845365 
L 91.938992 170.293951 
L 91.501281 162.742537 
L 91.31502 155.191124 
L 91.389524 147.634675 
L 91.724793 140.083262 
L 92.320826 132.531848 
L 93.177624 124.980434 
L 94.285873 117.42902 
L 95.626948 109.877606 
L 97.191535 102.326192 
L 99.328872 93.259462 
L 101.717661 84.197765 
L 104.753705 73.625786 
L 108.929662 60.033241 
L 118.463865 29.822551 
L 118.721835 28.312268 
L 119.465945 19.250572 
L 154.434 17.740289 
L 154.434 10.8 
L 154.434 10.8 
" clip-path="url(#pbc4904dc15)" style="fill: none; stroke: #46b8b0; stroke-opacity: 0.9; stroke-width: 2.5; stroke-linecap: square"/>
   </g>
   <g id="line2d_12">
    <path d="M 84.998 388.36368 
L 223.87 388.36368 
" clip-path="url(#pbc4904dc15)" style="fill: none; stroke-dasharray: 5.55,2.4; stroke-dashoffset: 0; stroke: #000000; stroke-width: 1.5"/>
   </g>
   <g id="line2d_13">
    <path d="M 154.434 543.92 
L 154.434 10.8 
" clip-path="url(#pbc4904dc15)" style="fill: none; stroke: #000000; stroke-width: 1.5; stroke-linecap: square"/>
   </g>
   <g id="patch_3">
    <path d="M 84.998 543.92 
L 84.998 10.8 
" style="fill: none; stroke: #000000; stroke-width: 0.8; stroke-linejoin: miter; stroke-linecap: square"/>
   </g>
   <g id="patch_4">
    <path d="M 223.87 543.92 
L 223.87 10.8 
" style="fill: none; stroke: #000000; stroke-width: 0.8; stroke-linejoin: miter; stroke-linecap: square"/>
   </g>
   <g id="patch_5">
    <path d="M 84.998 543.92 
L 223.87 543.92 
" style="fill: none; stroke: #000000; stroke-width: 0.8; stroke-linejoin: miter; stroke-linecap: square"/>
   </g>
   <g id="patch_6">
    <path d="M 84.998 10.8 
L 223.87 10.8 
" style="fill: none; stroke: #000000; stroke-width: 0.8; stroke-linejoin: miter; stroke-linecap: square"/>
   </g>
   <g id="legend_1">
    <g id="patch_7">
     <path d="M 230.87 449.391562 
L 311.321562 449.391562 
Q 313.321562 449.391562 313.321562 447.391562 
L 313.321562 373.888438 
Q 313.321562 371.888438 311.321562 371.888438 
L 230.87 371.888438 
Q 228.87 371.888438 228.87 373.888438 
L 228.87 447.391562 
Q 228.87 449.391562 230.87 449.391562 
z
" style="fill: #ffffff; opacity: 0.8; stroke: #cccccc; stroke-linejoin: miter"/>
    </g>
    <g id="patch_8">
     <path d="M 232.87 383.486875 
L 252.87 383.486875 
L 252.87 376.486875 
L 232.87 376.486875 
z
" style="fill-opacity: 0.3; stroke: #000000; stroke-opacity: 0.3; stroke-linejoin: miter"/>
    </g>
    <g id="text_9">
     <!-- Total DOS -->
     <g transform="translate(260.87 383.486875) scale(0.1 -0.1)">
      <defs>
       <path id="DejaVuSans-54" d="M -19 4666 
L 3928 4666 
L 3928 4134 
L 2272 4134 
L 2272 0 
L 1638 0 
L 1638 4134 
L -19 4134 
L -19 4666 
z
" transform="scale(0.015625)"/>
       <path id="DejaVuSans-6f" d="M 1959 3097 
Q 1497 3097 1228 2736 
Q 959 2375 959 1747 
Q 959 1119 1226 758 
Q 1494 397 1959 397 
Q 2419 397 2687 759 
Q 2956 1122 2956 1747 
Q 2956 2369 2687 2733 
Q 2419 3097 1959 3097 
z
M 1959 3584 
Q 2709 3584 3137 3096 
Q 3566 2609 3566 1747 
Q 3566 888 3137 398 
Q 2709 -91 1959 -91 
Q 1206 -91 779 398 
Q 353 888 353 1747 
Q 353 2609 779 3096 
Q 1206 3584 1959 3584 
z
" transform="scale(0.015625)"/>
       <path id="DejaVuSans-74" d="M 1172 4494 
L 1172 3500 
L 2356 3500 
L 2356 3053 
L 1172 3053 
L 1172 1153 
Q 1172 725 1289 603 
Q 1406 481 1766 481 
L 2356 481 
L 2356 0 
L 1766 0 
Q 1100 0 847 248 
Q 594 497 594 1153 
L 594 3053 
L 172 3053 
L 172 3500 
L 594 3500 
L 594 4494 
L 1172 4494 
z
" transform="scale(0.015625)"/>
       <path id="DejaVuSans-61" d="M 2194 1759 
Q 1497 1759 1228 1600 
Q 959 1441 959 1056 
Q 959 750 1161 570 
Q 1363 391 1709 391 
Q 2188 391 2477 730 
Q 2766 1069 2766 1631 
L 2766 1759 
L 2194 1759 
z
M 3341 1997 
L 3341 0 
L 2766 0 
L 2766 531 
Q 2569 213 2275 61 
Q 1981 -91 1556 -91 
Q 1019 -91 701 211 
Q 384 513 384 1019 
Q 384 1609 779 1909 
Q 1175 2209 1959 2209 
L 2766 2209 
L 2766 2266 
Q 2766 2663 2505 2880 
Q 2244 3097 1772 3097 
Q 1472 3097 1187 3025 
Q 903 2953 641 2809 
L 641 3341 
Q 956 3463 1253 3523 
Q 1550 3584 1831 3584 
Q 2591 3584 2966 3190 
Q 3341 2797 3341 1997 
z
" transform="scale(0.015625)"/>
       <path id="DejaVuSans-6c" d="M 603 4863 
L 1178 4863 
L 1178 0 
L 603 0 
L 603 4863 
z
" transform="scale(0.015625)"/>
      </defs>
      <use xlink:href="#DejaVuSans-54"/>
      <use xlink:href="#DejaVuSans-6f" transform="translate(44.083984 0)"/>
      <use xlink:href="#DejaVuSans-74" transform="translate(105.265625 0)"/>
      <use xlink:href="#DejaVuSans-61" transform="translate(144.474609 0)"/>
      <use xlink:href="#DejaVuSans-6c" transform="translate(205.753906 0)"/>
      <use xlink:href="#DejaVuSans-20" transform="translate(233.537109 0)"/>
      <use xlink:href="#DejaVuSans-44" transform="translate(265.324219 0)"/>
      <use xlink:href="#DejaVuSans-4f" transform="translate(342.326172 0)"/>
      <use xlink:href="#DejaVuSans-53" transform="translate(421.037109 0)"/>
     </g>
    </g>
    <g id="line2d_14">
     <path d="M 232.87 394.665 
L 242.87 394.665 
L 252.87 394.665 
" style="fill: none; stroke: #2e7b75; stroke-opacity: 0.8; stroke-width: 1.8; stroke-linecap: square"/>
    </g>
    <g id="text_10">
     <!-- C_s -->
     <g transform="translate(260.87 398.165) scale(0.1 -0.1)">
      <defs>
       <path id="DejaVuSans-43" d="M 4122 4306 
L 4122 3641 
Q 3803 3938 3442 4084 
Q 3081 4231 2675 4231 
Q 1875 4231 1450 3742 
Q 1025 3253 1025 2328 
Q 1025 1406 1450 917 
Q 1875 428 2675 428 
Q 3081 428 3442 575 
Q 3803 722 4122 1019 
L 4122 359 
Q 3791 134 3420 21 
Q 3050 -91 2638 -91 
Q 1578 -91 968 557 
Q 359 1206 359 2328 
Q 359 3453 968 4101 
Q 1578 4750 2638 4750 
Q 3056 4750 3426 4639 
Q 3797 4528 4122 4306 
z
" transform="scale(0.015625)"/>
       <path id="DejaVuSans-5f" d="M 3263 -1063 
L 3263 -1509 
L -63 -1509 
L -63 -1063 
L 3263 -1063 
z
" transform="scale(0.015625)"/>
       <path id="DejaVuSans-73" d="M 2834 3397 
L 2834 2853 
Q 2591 2978 2328 3040 
Q 2066 3103 1784 3103 
Q 1356 3103 1142 2972 
Q 928 2841 928 2578 
Q 928 2378 1081 2264 
Q 1234 2150 1697 2047 
L 1894 2003 
Q 2506 1872 2764 1633 
Q 3022 1394 3022 966 
Q 3022 478 2636 193 
Q 2250 -91 1575 -91 
Q 1294 -91 989 -36 
Q 684 19 347 128 
L 347 722 
Q 666 556 975 473 
Q 1284 391 1588 391 
Q 1994 391 2212 530 
Q 2431 669 2431 922 
Q 2431 1156 2273 1281 
Q 2116 1406 1581 1522 
L 1381 1569 
Q 847 1681 609 1914 
Q 372 2147 372 2553 
Q 372 3047 722 3315 
Q 1072 3584 1716 3584 
Q 2034 3584 2315 3537 
Q 2597 3491 2834 3397 
z
" transform="scale(0.015625)"/>
      </defs>
      <use xlink:href="#DejaVuSans-43"/>
      <use xlink:href="#DejaVuSans-5f" transform="translate(69.824219 0)"/>
      <use xlink:href="#DejaVuSans-73" transform="translate(119.824219 0)"/>
     </g>
    </g>
    <g id="line2d_15">
     <path d="M 232.87 409.62125 
L 242.87 409.62125 
L 252.87 409.62125 
" style="fill: none; stroke: #3ea49c; stroke-opacity: 0.8; stroke-width: 2; stroke-linecap: square"/>
    </g>
    <g id="text_11">
     <!-- C_p -->
     <g transform="translate(260.87 413.12125) scale(0.1 -0.1)">
      <defs>
       <path id="DejaVuSans-70" d="M 1159 525 
L 1159 -1331 
L 581 -1331 
L 581 3500 
L 1159 3500 
L 1159 2969 
Q 1341 3281 1617 3432 
Q 1894 3584 2278 3584 
Q 2916 3584 3314 3078 
Q 3713 2572 3713 1747 
Q 3713 922 3314 415 
Q 2916 -91 2278 -91 
Q 1894 -91 1617 61 
Q 1341 213 1159 525 
z
M 3116 1747 
Q 3116 2381 2855 2742 
Q 2594 3103 2138 3103 
Q 1681 3103 1420 2742 
Q 1159 2381 1159 1747 
Q 1159 1113 1420 752 
Q 1681 391 2138 391 
Q 2594 391 2855 752 
Q 3116 1113 3116 1747 
z
" transform="scale(0.015625)"/>
      </defs>
      <use xlink:href="#DejaVuSans-43"/>
      <use xlink:href="#DejaVuSans-5f" transform="translate(69.824219 0)"/>
      <use xlink:href="#DejaVuSans-70" transform="translate(119.824219 0)"/>
     </g>
    </g>
    <g id="line2d_16">
     <path d="M 232.87 424.5775 
L 242.87 424.5775 
L 252.87 424.5775 
" style="fill: none; stroke: #4ecdc4; stroke-opacity: 0.8; stroke-width: 2.2; stroke-linecap: square"/>
    </g>
    <g id="text_12">
     <!-- C_d -->
     <g transform="translate(260.87 428.0775) scale(0.1 -0.1)">
      <defs>
       <path id="DejaVuSans-64" d="M 2906 2969 
L 2906 4863 
L 3481 4863 
L 3481 0 
L 2906 0 
L 2906 525 
Q 2725 213 2448 61 
Q 2172 -91 1784 -91 
Q 1150 -91 751 415 
Q 353 922 353 1747 
Q 353 2572 751 3078 
Q 1150 3584 1784 3584 
Q 2172 3584 2448 3432 
Q 2725 3281 2906 2969 
z
M 947 1747 
Q 947 1113 1208 752 
Q 1469 391 1925 391 
Q 2381 391 2643 752 
Q 2906 1113 2906 1747 
Q 2906 2381 2643 2742 
Q 2381 3103 1925 3103 
Q 1469 3103 1208 2742 
Q 947 2381 947 1747 
z
" transform="scale(0.015625)"/>
      </defs>
      <use xlink:href="#DejaVuSans-43"/>
      <use xlink:href="#DejaVuSans-5f" transform="translate(69.824219 0)"/>
      <use xlink:href="#DejaVuSans-64" transform="translate(119.824219 0)"/>
     </g>
    </g>
    <g id="line2d_17">
     <path d="M 232.87 439.53375 
L 242.87 439.53375 
L 252.87 439.53375 
" style="fill: none; stroke: #46b8b0; stroke-opacity: 0.9; stroke-width: 2.5; stroke-linecap: square"/>
    </g>
    <g id="text_13">
     <!-- C_all -->
     <g transform="translate(260.87 443.03375) scale(0.1 -0.1)">
      <use xlink:href="#DejaVuSans-43"/>
      <use xlink:href="#DejaVuSans-5f" transform="translate(69.824219 0)"/>
      <use xlink:href="#DejaVuSans-61" transform="translate(119.824219 0)"/>
      <use xlink:href="#DejaVuSans-6c" transform="translate(181.103516 0)"/>
      <use xlink:href="#DejaVuSans-6c" transform="translate(208.886719 0)"/>
     </g>
    </g>
   </g>
  </g>
 </g>
 <defs>
  <clipPath id="pbc4904dc15">
   <rect x="84.998" y="10.8" width="138.872" height="533.12"/>
  </clipPath>
 </defs>
</svg>
